<?xml version="1.0" encoding="UTF-8"?>
<svg width="129px" height="80px" viewBox="0 0 129 80" version="1.1" xmlns="http://www.w3.org/2000/svg" xmlns:xlink="http://www.w3.org/1999/xlink">
    <title>Logo_PayID</title>
    <g id="Logo_PayID" stroke="none" stroke-width="1" fill="none" fill-rule="evenodd">
        <g id="Group-9" transform="translate(10.000000, 13.714286)" fill="#000000">
            <path d="M7.38709857,25.4214716 C8.09851695,25.4214716 8.77927074,25.368438 9.42322703,25.2623709 C10.0671833,25.1563038 10.6436775,24.9691265 11.1496432,24.7008391 C11.6556088,24.4325516 12.0573149,24.0644363 12.3578278,23.5964931 C12.6552743,23.1285499 12.8055308,22.5202238 12.8055308,21.7715146 C12.8055308,21.0228055 12.6552743,20.4550344 12.3578278,19.9995697 C12.0573149,19.544105 11.6617417,19.1853485 11.1680419,18.9295396 C10.6743421,18.670611 10.1101137,18.5021515 9.47535682,18.4210413 C8.84366637,18.3399312 8.19357716,18.2993761 7.52508921,18.2993761 L4.35130464,18.2993761 L4.35130464,25.4277108 L7.38709857,25.4277108 L7.38709857,25.4214716 Z M0,14.5714286 L7.97279215,14.5714286 C9.37723015,14.5714286 10.6406111,14.699333 11.7690678,14.9582616 C12.8944581,15.2171902 13.863459,15.6383391 14.6668711,16.2217083 C15.4702832,16.8081971 16.0927743,17.5569062 16.5312779,18.4678356 C16.966715,19.3818847 17.1875,20.4799914 17.1875,21.768395 C17.1875,23.1503873 16.9329839,24.3077668 16.4270183,25.2436532 C15.9210526,26.1795396 15.2372324,26.934488 14.3724911,27.5084983 C13.5108162,28.0825086 12.5019514,28.4974182 11.3520294,28.7532272 C10.2021075,29.0121558 8.981657,29.1400602 7.69374442,29.1400602 L4.34517172,29.1400602 L4.34517172,39.4285714 L0,39.4285714 L0,14.5714286 Z" id="Fill-1"></path>
            <path d="M29.5470564,31.2093933 L28.6059917,31.2093933 C27.9311493,31.2093933 27.2222552,31.2410056 26.4793095,31.2979076 C25.7363637,31.3579708 25.0522345,31.4875809 24.4238262,31.6898991 C23.7985135,31.8922174 23.2753558,32.1767274 22.8574488,32.5434292 C22.4395419,32.910131 22.2290405,33.4159265 22.2290405,34.0544935 C22.2290405,34.4591299 22.3157176,34.7973807 22.4890716,35.0692458 C22.6624256,35.3411109 22.8884049,35.5623965 23.1701052,35.7267801 C23.4487099,35.8943249 23.7613662,36.0112901 24.1111698,36.080837 C24.4609735,36.1535451 24.8076815,36.1883185 25.1574851,36.1883185 C26.5969425,36.1883185 27.6896919,35.796327 28.4326377,35.015505 C29.1755835,34.2315219 29.5470564,33.16619 29.5470564,31.8131868 C29.5470564,31.8131868 29.5470564,31.2093933 29.5470564,31.2093933 L29.5470564,31.2093933 Z M29.6151597,36.8300467 L29.5099091,36.8300467 C29.0920021,37.58874 28.4171597,38.2115008 27.4884775,38.6983291 C26.5597953,39.1851573 25.5010975,39.4285714 24.3185755,39.4285714 C23.6437331,39.4285714 22.9410302,39.3400572 22.2104669,39.1630288 C21.4799036,38.9860003 20.8050612,38.6888454 20.1890353,38.2747253 C19.5730094,37.8606051 19.0622342,37.3137137 18.6567097,36.6372121 C18.2511851,35.9607105 18.046875,35.1261478 18.046875,34.1303628 C18.046875,32.8500677 18.3997742,31.8289929 19.1086683,31.0702996 C19.8175624,30.3116062 20.727671,29.7299413 21.8451852,29.3253048 C22.9596039,28.9206684 24.1978468,28.6551257 25.5568185,28.5255156 C26.9157901,28.3959055 28.2438057,28.3295198 29.5470564,28.3295198 L29.5470564,27.9027548 C29.5470564,26.8342616 29.1693923,26.0471173 28.4140641,25.5381605 C27.6587359,25.0292037 26.7579141,24.7731447 25.7146944,24.7731447 C24.8324463,24.7731447 23.9842499,24.962818 23.1701052,25.3421647 C22.3559605,25.7215114 21.6842137,26.1830498 21.1486736,26.7299413 L18.9879396,24.1314165 C19.9413867,23.2304682 21.0372317,22.5539666 22.2816659,22.105073 C23.5230044,21.6530182 24.7829166,21.4285714 26.0614025,21.4285714 C27.547294,21.4285714 28.7731545,21.6403733 29.7358884,22.0702996 C30.6986223,22.4970646 31.4601417,23.0534397 32.017351,23.7425862 C32.5745604,24.4317327 32.9646069,25.1999097 33.184395,26.0566009 C33.4041831,26.910131 33.515625,27.763661 33.515625,28.617191 L33.515625,39.0049676 L29.6151597,39.0049676 L29.6151597,36.8332079 L29.6151597,36.8300467 Z" id="Fill-3"></path>
            <path d="M35.234375,22.2888877 L39.9133102,22.2888877 L44.6266264,34.7541122 L44.6985138,34.7541122 L48.8836135,22.2888877 L53.28125,22.2888877 L45.2954922,43.1097477 C44.9891891,43.8967578 44.6641329,44.5917385 44.3109467,45.1978632 C43.9577605,45.8039879 43.5358125,46.3180832 43.0451025,46.7338023 C42.551267,47.1495213 41.9730419,47.4668641 41.304176,47.6794838 C40.6353102,47.8921035 39.8320461,48 38.8943838,48 C38.5411976,48 38.1848859,47.9809594 37.8223231,47.9460517 C37.4597603,47.911144 37.0878209,47.844502 36.7158815,47.7492992 L37.0659422,44.0363886 C37.3472409,44.1315915 37.6222885,44.1982335 37.891085,44.2331412 C38.1598816,44.2680489 38.4130504,44.2870894 38.647466,44.2870894 C39.0912929,44.2870894 39.4663578,44.2331412 39.7726609,44.1252446 C40.0789639,44.0173481 40.3352583,43.8523298 40.5477951,43.623843 C40.7572063,43.3985296 40.9478643,43.1160946 41.1103925,42.7860581 C41.2729206,42.4528482 41.4510765,42.0593431 41.638609,41.6087163 L42.4825051,39.4285714 L35.2375005,22.2857143 L35.234375,22.2888877 Z" id="Fill-5"></path>
            <path d="M97.8879487,28.7772581 C97.7094342,29.9549639 97.4338329,31.013962 97.0830676,31.8324208 C94.8250159,37.1211635 89.5604045,39.8045834 81.4395613,39.8045834 L69.6200232,39.8045834 L69.6200232,21.4517403 L72.9522936,21.4517403 L72.9522936,36.4776425 L81.4395613,36.4776425 C88.0978385,36.4776425 92.3320768,34.4752302 94.017003,30.5297594 C94.2143085,30.0705478 94.3802956,29.4645135 94.5087008,28.7741342 L91.746424,28.7741342 L96.5036785,22.8168794 L101.270328,28.7835059 L97.8879487,28.7835059 L97.8879487,28.7772581 Z M68.912229,14.6229207 C68.912229,13.2515337 70.0271615,12.1394295 71.4020363,12.1394295 C72.776911,12.1394295 73.8918436,13.2515337 73.8918436,14.6229207 C73.8918436,15.9943076 72.776911,17.1064118 71.4020363,17.1064118 C70.0271615,17.1064118 68.912229,15.9943076 68.912229,14.6229207 L68.912229,14.6229207 Z M79.4351881,12.5142961 L80.900886,12.3362345 C81.0230275,12.3206151 83.9763461,11.9769874 87.393176,12.6923578 C92.1191122,13.6826303 95.4670417,16.2161036 97.0736721,20.0209995 L94.0013438,21.3111653 C91.8121925,16.1286348 85.6142948,15.5413438 82.7674585,15.563211 L82.7674585,30.9858471 L79.4351881,30.9858471 L79.4351881,12.5142961 Z M97.4839422,0 L69.2348078,0 C62.7957589,0 57.578125,5.20752163 57.578125,11.6271119 L57.578125,39.8014595 C57.578125,46.2241737 62.7988908,51.4285714 69.2348078,51.4285714 L97.4839422,51.4285714 C103.922991,51.4285714 109.140625,46.2210498 109.140625,39.8014595 L109.140625,11.6271119 C109.140625,5.20439774 103.919859,0 97.4839422,0 L97.4839422,0 Z" id="Fill-7"></path>
        </g>
    </g>
</svg>